<?xml version="1.0"?>
<svg xmlns="http://www.w3.org/2000/svg" xmlns:xlink="http://www.w3.org/1999/xlink" xmlns:svgjs="http://svgjs.com/svgjs" version="1.1" width="512" height="512" x="0" y="0" viewBox="0 0 512 512" style="enable-background:new 0 0 512 512" xml:space="preserve"><g><linearGradient xmlns="http://www.w3.org/2000/svg" id="SVGID_1_" gradientUnits="userSpaceOnUse" x1="255.5" x2="255.5" y1="331" y2="121"><stop offset="0" stop-color="#ffc2cc"/><stop offset="1" stop-color="#fff2f4"/></linearGradient><linearGradient xmlns="http://www.w3.org/2000/svg" id="SVGID_2_" gradientUnits="userSpaceOnUse" x1="256" x2="256" y1="481" y2="31"><stop offset="0" stop-color="#fd3a84"/><stop offset="1" stop-color="#ffa68d"/></linearGradient><g xmlns="http://www.w3.org/2000/svg"><g><g><path d="m406 181.079-30-30.079h-105l-13.895-30-16.105 30h-105l-30 28.658-61 151.342h421z" fill="url(#SVGID_1_)" data-original="url(#SVGID_1_)" style=""/></g></g><g><g><path d="m510.506 391.41-31.586-155.698c-9.609-49.087-52.91-84.712-102.92-84.712-41.016 0-77.813 23.701-94.717 60h-50.566c-16.904-36.299-53.701-60-94.717-60-50.01 0-93.311 35.625-102.92 84.712l-31.498 155.185c-1.055 4.615-1.582 9.551-1.582 15.103 0 41.353 33.633 75 75 75 25.635 0 50.307-13.008 64.369-34.863l54.053-85.137h125.156l55.082 85.21c14.033 21.782 37.705 34.79 63.34 34.79 41.367 0 75-33.647 75-75 0-5.552-.527-10.488-1.494-14.59zm-374.506-90.41c-24.814 0-45-20.186-45-45s20.186-45 45-45 45 20.186 45 45-20.186 45-45 45zm150 0h-60c-8.291 0-15-6.709-15-15s6.709-15 15-15h60c8.291 0 15 6.709 15 15s-6.709 15-15 15zm120-30h-15v15c0 8.291-6.709 15-15 15s-15-6.709-15-15v-15h-15c-8.291 0-15-6.709-15-15s6.709-15 15-15h15v-15c0-8.291 6.709-15 15-15s15 6.709 15 15v15h15c8.291 0 15 6.709 15 15s-6.709 15-15 15zm-135-225c0-8.291-6.709-15-15-15s-15 6.709-15 15v105h30z" fill="url(#SVGID_2_)" data-original="url(#SVGID_2_)" style=""/></g></g></g></g></svg>
